<svg viewBox="0 0 1024 1068.141" xmlns="http://www.w3.org/2000/svg"><path d="m363.297 318.738c200.644 0 363.297 162.654 363.297 363.297s-162.654 363.297-363.297 363.297c-200.644 0-363.297-162.654-363.297-363.297.228-200.552 162.746-363.07 363.275-363.297zm0 637.552c151.466 0 274.254-122.788 274.254-274.254s-122.787-274.254-274.253-274.254-274.254 122.788-274.254 274.254c.177 151.395 122.86 274.077 274.237 274.254h.017zm340.146-722.143c177.037 0 320.557 143.518 320.557 320.557s-143.518 320.556-320.557 320.556c-177.038 0-320.557-143.517-320.557-320.556.203-176.957 143.6-320.354 320.537-320.557zm0 552.07c127.86 0 231.513-103.653 231.513-231.514s-103.652-231.513-231.513-231.513c-127.86 0-231.513 103.652-231.513 231.513.152 127.8 103.713 231.36 231.498 231.513h.015zm39.313-463.472h-79.116l-163.037-162.995 68.875-138.417h267.53l69.544 138.374zm-42.25-89.043h5.475l91.938-91.626-15.983-31.7h-157.34l-15.76 31.656z"/></svg>